<svg width="52" height="51" viewBox="0 0 52 51" fill="none" xmlns="http://www.w3.org/2000/svg">
<g clip-path="url(#clip0_145_617)">
<path d="M51.1143 4.47215C51.6035 4.47215 52 4.08318 52 3.60346V0.868692C52 0.388974 51.6036 0 51.1143 0H11.0331C10.5439 0 10.1473 0.388974 10.1473 0.868692V40.179C10.1473 40.6587 10.5439 41.0476 11.0331 41.0476H51.1141C51.6033 41.0476 51.9998 40.6587 51.9998 40.179V6.499C51.9998 6.01928 51.6034 5.63031 51.1141 5.63031C50.6249 5.63031 50.2284 6.01928 50.2284 6.499V21.3822C50.2167 22.3913 50.2284 21.7797 50.2284 22.2594C50.2284 22.7392 50.2284 22.4341 50.2284 23.1196V39.3104H24.9227V35.1072C24.9227 34.6274 24.5261 34.2385 24.037 34.2385C23.5479 34.2385 23.1513 34.6274 23.1513 35.1072V39.3104H11.9188V1.73738H23.1514V28.8528C23.1514 29.3325 23.548 29.7215 24.0371 29.7215C24.5262 29.7215 24.9228 29.3325 24.9228 28.8528V23.1196C24.9228 22.2868 24.9228 22.7666 24.9228 22.2868C24.9228 21.8071 24.9227 22.0588 24.9228 21.3822L24.9227 1.73738H50.2286V3.60346C50.2286 4.08318 50.625 4.47215 51.1143 4.47215Z" fill="#61C967"/>
<path d="M7.48323 5.01343L4.56057 0.409593C4.39888 0.154892 4.11451 0 3.8087 0C3.5028 0 3.21852 0.154892 3.05684 0.409593L0.134076 5.01343C-0.0359392 5.28128 -0.044572 5.61846 0.111631 5.89427C0.267834 6.17009 0.564294 6.34122 0.885942 6.34122H2.92298V9.97377C2.92298 10.4535 3.31958 10.8425 3.8087 10.8425C4.29783 10.8425 4.69443 10.4535 4.69443 9.97377V6.34122H6.73146C7.05311 6.34122 7.34957 6.17019 7.50577 5.89427C7.66198 5.61836 7.65334 5.28118 7.48323 5.01343ZM2.48077 4.60384L3.8086 2.51224L5.13643 4.60384H2.48077Z" fill="#61C967"/>
<path d="M7.50543 35.1539C7.34922 34.878 7.05276 34.707 6.73112 34.707H4.69408V12.2906C4.69408 11.8108 4.29748 11.4219 3.80836 11.4219C3.31923 11.4219 2.92263 11.8108 2.92263 12.2906V34.7069H0.885698C0.56405 34.7069 0.26759 34.8779 0.111387 35.1539C-0.0448161 35.4298 -0.0361833 35.767 0.133832 36.0347L3.05649 40.6385C3.21818 40.8932 3.50245 41.0481 3.80836 41.0481C4.11436 41.0481 4.39864 40.8932 4.56022 40.6385L7.48288 36.0347C7.6531 35.7668 7.66173 35.4297 7.50543 35.1539ZM3.80846 38.536L2.48053 36.4444H5.13618L3.80846 38.536Z" fill="#61C967"/>
</g>
<defs>
<clipPath id="clip0_145_617">
<rect width="52" height="51" fill="white"/>
</clipPath>
</defs>
</svg>
