<svg width="46" height="46" viewBox="0 0 46 46" fill="none" xmlns="http://www.w3.org/2000/svg">
<g clip-path="url(#clip0_145_599)">
<path d="M45.1698 7.63184C44.7113 7.63184 44.3396 8.00353 44.3396 8.462V44.3399H37.7016V42.4706H41.6746C42.1331 42.4706 42.5047 42.0989 42.5047 41.6404V26.9617C42.5047 26.5033 42.1331 26.1316 41.6746 26.1316H38.1272V24.2968H41.6746C42.1331 24.2968 42.5047 23.9251 42.5047 23.4666V4.29109C42.5047 3.83262 42.1331 3.46094 41.6746 3.46094H24.7475C24.289 3.46094 23.9173 3.83262 23.9173 4.29109V16.3165H22.0824V4.29109C22.0824 3.83262 21.7108 3.46094 21.2523 3.46094H4.32527C3.8668 3.46094 3.49512 3.83262 3.49512 4.29109V19.9099V23.4665C3.49512 23.925 3.8668 24.2967 4.32527 24.2967H7.32713C7.78561 24.2967 8.15729 23.925 8.15729 23.4665C8.15729 23.0081 7.78561 22.6364 7.32713 22.6364H5.15543V20.74H8.6782C11.6151 20.74 14.0044 18.3507 14.0044 15.4139V5.12125H20.4221V17.1467C20.4221 17.6051 20.7938 17.9768 21.2523 17.9768H24.7475C25.206 17.9768 25.5776 17.6051 25.5776 17.1467V5.12125H40.8443V7.25702H38.6521C38.1936 7.25702 37.8219 7.6287 37.8219 8.08717V19.4881C37.8219 19.9465 38.1936 20.3182 38.6521 20.3182H40.8443V22.6364H37.2969C36.8385 22.6364 36.4668 23.0081 36.4668 23.4665V26.9616C36.4668 27.4201 36.8385 27.7918 37.2969 27.7918H40.8443V40.8102H36.8713C36.4128 40.8102 36.0411 41.1818 36.0411 41.6403V45.1701C36.0411 45.6286 36.4128 46.0002 36.8713 46.0002H45.1695C45.628 46.0002 45.9997 45.6286 45.9997 45.1701V8.462C45.9999 8.00353 45.6283 7.63184 45.1698 7.63184ZM12.3442 15.4139H12.3441C12.3441 17.4352 10.6996 19.0797 8.6782 19.0797H5.15543V5.12125H5.76116V5.65789C5.76116 6.11636 6.13284 6.48804 6.59131 6.48804C7.04979 6.48804 7.42147 6.11636 7.42147 5.65789V5.12125H7.91956V7.3182C7.91956 7.77667 8.29125 8.14836 8.74972 8.14836C9.20819 8.14836 9.57988 7.77667 9.57988 7.3182V5.12125H10.078V5.65789C10.078 6.11636 10.4497 6.48804 10.9081 6.48804C11.3666 6.48804 11.7383 6.11636 11.7383 5.65789V5.12125H12.3441V15.4139H12.3442ZM40.8444 18.658H39.4823V8.91733H40.8444V18.658Z" fill="#61C967"/>
<path d="M45.1698 0.000976562H0.830156C0.371684 0.000976562 0 0.37266 0 0.831133V45.1707C0 45.6292 0.371684 46.0009 0.830156 46.0009H30.1847C30.6432 46.0009 31.0149 45.6292 31.0149 45.1707V41.6409C31.0149 41.1825 30.6432 40.8108 30.1847 40.8108H25.5777V32.7287C25.5777 32.2702 25.206 31.8986 24.7475 31.8986H21.2524C20.7939 31.8986 20.4222 32.2702 20.4222 32.7287V40.8108H5.1555V38.9086H7.67984C8.45996 38.9086 9.14933 38.5155 9.56234 37.9174C10.2843 38.2915 11.1139 38.4918 11.9854 38.4918C14.5749 38.4918 16.6816 36.6818 16.6816 34.4569C16.6816 33.7962 16.4926 33.1411 16.135 32.5622C15.8942 32.1723 15.3825 32.0512 14.9925 32.2923C14.6024 32.5332 14.4816 33.0447 14.7225 33.4348C14.9208 33.7558 15.0212 34.0996 15.0212 34.4569C15.0212 35.7662 13.6593 36.8314 11.9854 36.8314C11.2385 36.8314 10.5218 36.6128 9.96691 36.2242V32.6895C10.5218 32.301 11.2385 32.0822 11.9854 32.0822C12.4688 32.0822 12.9309 32.1694 13.359 32.3413C13.7843 32.5122 14.2679 32.3056 14.4387 31.8801C14.6095 31.4546 14.403 30.9713 13.9775 30.8005C13.3518 30.5492 12.6816 30.4218 11.9852 30.4218C11.1137 30.4218 10.2839 30.6222 9.56162 30.9965C9.14861 30.3989 8.45951 30.006 7.67957 30.006H5.1555V27.7923H28.0682C28.5266 27.7923 28.8983 27.4206 28.8983 26.9621V23.467C28.8983 23.0085 28.5266 22.6368 28.0682 22.6368H9.98371C9.52523 22.6368 9.15355 23.0085 9.15355 23.467C9.15355 23.9255 9.52523 24.2972 9.98371 24.2972H27.2381V26.1319H4.32535C3.86688 26.1319 3.49519 26.5036 3.49519 26.9621V41.6409C3.49519 42.0993 3.86688 42.471 4.32535 42.471H21.2524C21.7109 42.471 22.0826 42.0993 22.0826 41.6409V33.5588H23.9175V41.6409C23.9175 42.0993 24.2892 42.471 24.7476 42.471H29.3546V44.3404H1.66031V1.66129H44.3397V5.51091C44.3397 5.96939 44.7114 6.34107 45.1698 6.34107C45.6283 6.34107 46 5.96939 46 5.51091V0.831133C46 0.37266 45.6283 0.000976562 45.1698 0.000976562ZM5.1555 31.6667H7.67984V31.6666C8.02556 31.6666 8.30668 31.9477 8.30668 32.2934V36.6216C8.30668 36.9671 8.02556 37.2484 7.67984 37.2484H5.1555V31.6667Z" fill="#61C967"/>
<path d="M34.7013 7.25684H28.5726C28.1141 7.25684 27.7424 7.62852 27.7424 8.08699V19.4879C27.7424 19.9464 28.1141 20.3181 28.5726 20.3181H34.7013C35.1598 20.3181 35.5314 19.9464 35.5314 19.4879V16.7761V10.7988V8.08699C35.5314 7.62852 35.1598 7.25684 34.7013 7.25684ZM33.8711 15.9459H32.2876V11.629H33.8711V15.9459ZM33.8711 9.96868H31.4575C30.999 9.96868 30.6273 10.3404 30.6273 10.7988V16.7761C30.6273 17.2345 30.999 17.6062 31.4575 17.6062H33.8711V18.6577H29.4027V8.91715H33.8711V9.96868Z" fill="#61C967"/>
<path d="M11.754 35.2863C12.2125 35.2863 12.5841 34.9146 12.5841 34.4561C12.5841 33.9977 12.2125 33.626 11.754 33.626C11.2955 33.626 10.9238 33.9977 10.9238 34.4561C10.9238 34.9146 11.2955 35.2863 11.754 35.2863Z" fill="#61C967"/>
<path d="M8.74996 16.8918C9.20844 16.8918 9.58011 16.5201 9.58011 16.0616C9.58011 15.6031 9.20844 15.2314 8.74996 15.2314C8.29147 15.2314 7.9198 15.6031 7.9198 16.0616C7.9198 16.5201 8.29147 16.8918 8.74996 16.8918Z" fill="#61C967"/>
</g>
<defs>
<clipPath id="clip0_145_599">
<rect width="46" height="46" fill="white"/>
</clipPath>
</defs>
</svg>
