<svg width="51" height="51" viewBox="0 0 51 51" fill="none" xmlns="http://www.w3.org/2000/svg">
<path d="M42.6297 8.12402H40.1404C39.7688 8.12402 39.5335 8.3594 39.5335 8.61948H39.5334V16.6698C39.5334 17.0042 39.9297 17.1776 40.3384 17.1776C40.7348 17.1776 41.1435 17.0043 41.1435 16.6698V13.7965H42.5307C44.1655 13.7965 45.4412 13.0161 45.4412 10.985V10.9108C45.4412 8.87956 44.2027 8.12402 42.6297 8.12402ZM43.831 11.1089C43.831 12.0749 43.3357 12.5332 42.5306 12.5332H41.1435V9.53598H42.5306C43.3357 9.53598 43.831 9.99428 43.831 10.9603V11.1089Z" fill="#61C967"/>
<path d="M29.1923 11.271C26.8411 8.91982 23.7152 7.625 20.3902 7.625C17.0651 7.625 13.9392 8.91982 11.588 11.271C11.3042 11.5547 11.3042 12.0147 11.588 12.2985C11.8717 12.5821 12.3317 12.5821 12.6154 12.2985C14.6921 10.2218 17.4532 9.0781 20.3901 9.0781C23.3269 9.0781 26.0881 10.2218 28.1647 12.2985C28.3067 12.4403 28.4927 12.5112 28.6785 12.5112C28.8644 12.5112 29.0504 12.4403 29.1923 12.2985C29.476 12.0148 29.476 11.5547 29.1923 11.271Z" fill="#61C967"/>
<path d="M26.195 14.2688C22.9941 11.068 17.7861 11.068 14.5853 14.2688C14.3016 14.5525 14.3016 15.0126 14.5853 15.2963C14.869 15.5799 15.3291 15.5799 15.6128 15.2963C18.2471 12.6621 22.5332 12.6621 25.1675 15.2963C25.3093 15.4381 25.4952 15.509 25.6812 15.509C25.8671 15.509 26.053 15.4381 26.195 15.2963C26.4787 15.0126 26.4787 14.5525 26.195 14.2688Z" fill="#61C967"/>
<path d="M23.2451 17.2187C21.6708 15.6445 19.1094 15.6445 17.5352 17.2187C17.2514 17.5024 17.2514 17.9624 17.5352 18.2462C17.8189 18.53 18.2789 18.5299 18.5626 18.2462C19.5704 17.2386 21.2099 17.2386 22.2177 18.2462C22.3595 18.3882 22.5455 18.459 22.7314 18.459C22.9172 18.459 23.1032 18.3881 23.2451 18.2462C23.5288 17.9624 23.5288 17.5025 23.2451 17.2187Z" fill="#61C967"/>
<path d="M35.7518 31.3686C35.4375 31.1955 35.1273 31.0061 34.83 30.8053L30.0244 27.5588C28.5659 26.5735 26.8646 26.0527 25.1045 26.0527H16.2841C13.9427 26.0527 11.7398 26.9629 10.0809 28.6154C9.22825 29.4649 8.25686 30.1756 7.19374 30.7276C6.56501 31.0541 6.17444 31.6967 6.17444 32.4046C6.17444 33.4471 7.02251 34.2952 8.06502 34.2952H11.0722C11.4734 34.2952 11.7988 33.9699 11.7988 33.5686C11.7988 33.1674 11.4734 32.8421 11.0722 32.8421H8.06502C7.82376 32.8421 7.62743 32.6458 7.62743 32.4045C7.62743 32.241 7.71778 32.0926 7.86331 32.0171C9.05772 31.397 10.1489 30.5987 11.1064 29.6447C12.4909 28.2654 14.3297 27.5057 16.284 27.5057H18.2587V32.8421H15.845C15.4438 32.8421 15.1184 33.1674 15.1184 33.5686C15.1184 33.9699 15.4438 34.2952 15.845 34.2952H35.7666C36.3638 34.2952 36.8497 33.8093 36.8497 33.212C36.8497 32.4472 36.429 31.7408 35.7518 31.3686ZM19.712 32.8422V27.5058H25.1046C26.5738 27.5058 27.9938 27.9405 29.2111 28.7629L34.0167 32.0094C34.3504 32.2348 34.6986 32.4475 35.0518 32.6418C35.1432 32.6921 35.2198 32.7612 35.2774 32.8422H19.712Z" fill="#61C967"/>
<path d="M21.5122 35.3994H19.268C18.8668 35.3994 18.5414 35.7247 18.5414 36.126C18.5414 36.5272 18.8668 36.8525 19.268 36.8525H21.5122C21.9134 36.8525 22.2387 36.5272 22.2387 36.126C22.2387 35.7247 21.9134 35.3994 21.5122 35.3994Z" fill="#61C967"/>
<path d="M50.3732 34.7901L50.1437 34.4092C49.2788 32.9739 47.8401 31.9633 46.1967 31.6364L44.3209 31.2633V21.756H49.1751C50.1745 21.756 50.9875 20.9429 50.9875 19.9435V5.79393C50.9875 4.79445 50.1744 3.98145 49.1751 3.98145H35.0255C34.026 3.98145 33.213 4.79455 33.213 5.79393V11.1614C33.213 11.5626 33.5382 11.8879 33.9396 11.8879C34.3409 11.8879 34.6661 11.5626 34.6661 11.1614V5.79393C34.6661 5.59571 34.8274 5.43444 35.0256 5.43444H49.1753C49.3735 5.43444 49.5347 5.59571 49.5347 5.79393V19.9436C49.5347 20.1418 49.3735 20.3031 49.1753 20.3031H35.0255C34.8273 20.3031 34.666 20.1418 34.666 19.9436V15.8846C34.666 15.4834 34.3408 15.1581 33.9395 15.1581C33.5381 15.1581 33.2129 15.4834 33.2129 15.8846V19.9436C33.2129 20.9431 34.026 21.7561 35.0254 21.7561H40.5299V30.5096L39.5657 30.3179C38.2349 30.0532 36.9375 29.25 36.0773 28.6688L31.2717 25.4225C29.4434 24.1874 27.3109 23.5346 25.1046 23.5346H16.2842C13.3492 23.5346 10.5877 24.6754 8.5086 26.7468C7.19296 28.0575 5.53686 28.9515 3.7193 29.3322L2.67619 29.5507C1.12548 29.8754 0 31.2612 0 32.8455V39.8819C0 40.7212 0.495555 41.4839 1.26264 41.8248L4.15648 43.1109C4.3315 44.026 4.77237 44.8999 5.47939 45.6069C6.419 46.5466 7.65326 47.0164 8.88761 47.0164C10.122 47.0164 11.3561 46.5466 12.2958 45.6069C12.9002 45.0026 13.309 44.2762 13.5246 43.5065H37.6535C37.8691 44.2762 38.278 45.0026 38.8824 45.6069C39.7928 46.5173 41.003 47.0187 42.2906 47.0187C43.578 47.0187 44.7885 46.5174 45.6989 45.6069C46.3032 45.0026 46.712 44.2762 46.9277 43.5065H48.306C49.7914 43.5065 51 42.2979 51 40.8125V37.0441C50.9998 36.2498 50.7831 35.4704 50.3732 34.7901ZM41.983 21.756H42.8679V30.9744L41.983 30.7984V21.756ZM11.2683 44.5796C10.6324 45.2155 9.78688 45.5657 8.88751 45.5657C7.98814 45.5657 7.14266 45.2155 6.50676 44.5796C5.48666 43.5595 5.25975 42.0425 5.82493 40.8008C5.82952 40.7908 5.8339 40.7808 5.83848 40.7708C5.85571 40.734 5.87394 40.6975 5.89257 40.6613C5.90133 40.6441 5.9101 40.6271 5.91926 40.6102C5.9361 40.5787 5.95363 40.5474 5.97156 40.5163C5.98391 40.4949 5.99656 40.4737 6.00941 40.4526C6.02604 40.4252 6.04288 40.3979 6.06041 40.3709C6.07625 40.3465 6.09258 40.3224 6.10912 40.2984C6.12545 40.2746 6.14169 40.2507 6.15862 40.2273C6.17805 40.2005 6.19827 40.1742 6.21859 40.1479C6.23443 40.1273 6.24987 40.1066 6.2662 40.0864C6.29011 40.0568 6.31511 40.0279 6.34001 39.9991C6.35426 39.9826 6.3679 39.9658 6.38245 39.9495C6.4195 39.9084 6.45765 39.8681 6.4969 39.8285C6.50028 39.8251 6.50337 39.8215 6.50676 39.8182C6.51423 39.8107 6.5221 39.8037 6.52967 39.7963C6.56294 39.7637 6.59641 39.7314 6.63057 39.7004C6.63944 39.6924 6.6488 39.6849 6.65776 39.6769C6.69183 39.6467 6.7261 39.6168 6.76116 39.5882C6.76445 39.5855 6.76793 39.583 6.77122 39.5803C8.00268 38.5837 9.77881 38.5849 11.0088 39.5843C11.0102 39.5855 11.0117 39.5865 11.0132 39.5877C11.0507 39.6182 11.0875 39.6503 11.124 39.6828C11.1306 39.6886 11.1374 39.694 11.1439 39.6999C11.1861 39.7381 11.2275 39.7774 11.2682 39.8181C11.312 39.8619 11.3542 39.907 11.3953 39.9527C11.4133 39.9729 11.4303 39.9935 11.4478 40.0139C11.4691 40.0388 11.4905 40.0638 11.511 40.0892C11.534 40.1178 11.5562 40.1469 11.5781 40.176C11.5905 40.1922 11.6028 40.2085 11.6147 40.225C11.6413 40.2616 11.6672 40.2987 11.6922 40.3362C11.6965 40.3426 11.7007 40.3491 11.7049 40.3555C12.5595 41.6608 12.4141 43.4337 11.2683 44.5796ZM44.6712 44.5796C44.0352 45.2155 43.1898 45.5657 42.2904 45.5657C41.391 45.5657 40.5456 45.2155 39.9097 44.5796C38.7637 43.4337 38.6183 41.6605 39.473 40.3553C39.4771 40.349 39.4812 40.3427 39.4854 40.3365C39.5104 40.2989 39.5364 40.2617 39.5631 40.2249C39.5749 40.2085 39.5871 40.1924 39.5993 40.1764C39.6214 40.1471 39.6437 40.1179 39.6669 40.0891C39.6873 40.0639 39.7084 40.0392 39.7296 40.0145C39.7473 39.9939 39.7645 39.973 39.7827 39.9527C39.8238 39.907 39.866 39.862 39.9098 39.8182C40.5457 39.1823 41.3911 38.832 42.2905 38.832C43.1899 38.832 44.0353 39.1823 44.6712 39.8182C44.7151 39.862 44.7573 39.9071 44.7983 39.9528C44.8165 39.973 44.8335 39.9937 44.851 40.0142C44.8724 40.039 44.8937 40.0639 44.9141 40.0892C44.9372 40.1179 44.9594 40.147 44.9814 40.1762C44.9937 40.1924 45.0059 40.2086 45.0179 40.2251C45.0445 40.2618 45.0705 40.2988 45.0954 40.3363C45.0997 40.3427 45.1038 40.3491 45.108 40.3555C45.9625 41.6607 45.817 43.4338 44.6712 44.5796ZM49.547 40.8125H49.5468C49.5468 41.4968 48.9901 42.0535 48.3058 42.0535H47.1097C47.0812 40.9997 46.7092 39.9944 46.0399 39.1701C46.0354 39.1645 46.0311 39.1588 46.0265 39.1532C45.9851 39.1027 45.9422 39.0532 45.8985 39.004C45.8874 38.9914 45.8768 38.9785 45.8656 38.9659C45.8193 38.915 45.7715 38.8651 45.7229 38.8159C45.7146 38.8075 45.7071 38.7988 45.6987 38.7905C45.0728 38.1647 44.3051 37.7321 43.4681 37.5229C43.0876 37.4277 42.6928 37.3788 42.2904 37.3788C41.9686 37.3788 41.6515 37.4102 41.3427 37.4714C40.4164 37.6551 39.565 38.1078 38.8822 38.7905C38.874 38.7987 38.8665 38.8072 38.8585 38.8155C38.8097 38.865 38.7616 38.915 38.7153 38.9661C38.7044 38.9782 38.6942 38.9907 38.6834 39.0029C38.6394 39.0525 38.596 39.1025 38.5543 39.1535C38.5501 39.1586 38.5462 39.1638 38.542 39.169C37.8721 39.9934 37.4998 40.9993 37.4712 42.0536H13.7067C13.6781 40.998 13.305 39.9909 12.6334 39.1658C12.6303 39.1619 12.6273 39.1581 12.6242 39.1542C12.5804 39.1006 12.5349 39.0481 12.4886 38.9961C12.48 38.9865 12.472 38.9767 12.4634 38.9671C12.4091 38.9072 12.3533 38.8483 12.2956 38.7906C12.0608 38.5557 11.8074 38.3501 11.5403 38.1739C10.7388 37.6454 9.81318 37.3811 8.88751 37.3811C7.65326 37.3811 6.4189 37.851 5.47929 38.7906C5.4256 38.8443 5.37371 38.8994 5.3229 38.9552C5.30786 38.9717 5.29342 38.9885 5.27858 39.0052C5.24272 39.0457 5.20746 39.0866 5.17309 39.1281C5.15785 39.1465 5.14261 39.165 5.12767 39.1838C5.09211 39.2281 5.05745 39.2729 5.02358 39.3182C5.01302 39.3324 5.00216 39.3462 4.9919 39.3605C4.90086 39.4851 4.81639 39.6136 4.7383 39.7453C4.73611 39.749 4.73402 39.7528 4.73183 39.7565C4.69368 39.8214 4.65712 39.8871 4.62216 39.9535C4.62116 39.9554 4.62016 39.9574 4.61907 39.9593C4.36576 40.4413 4.19543 40.9627 4.11734 41.5034L1.85293 40.497C1.61008 40.389 1.4532 40.1476 1.4532 39.8819V32.8455C1.4532 31.945 2.09298 31.1574 2.97442 30.9727L4.01753 30.7542C6.11131 30.3157 8.01902 29.2858 9.53447 27.776C11.3394 25.9778 13.7366 24.9875 16.2845 24.9875H25.1048C27.0202 24.9875 28.8715 25.5543 30.4586 26.6264L35.2642 29.8727C36.2285 30.5242 37.6942 31.4269 39.2825 31.7429L45.9135 33.0615C47.1568 33.3088 48.245 34.0733 48.8993 35.1591L49.1288 35.54C49.4025 35.9939 49.547 36.514 49.547 37.0441V40.8125Z" fill="#61C967"/>
<path d="M10.4473 40.6392C10.0305 40.2226 9.47669 39.9932 8.88751 39.9932C8.29832 39.9932 7.74439 40.2227 7.32783 40.6392C6.91126 41.0558 6.68176 41.6097 6.68176 42.1989C6.68176 42.7881 6.91126 43.342 7.32783 43.7586C7.74439 44.1751 8.29832 44.4046 8.8876 44.4046C9.47679 44.4046 10.0307 44.1752 10.4473 43.7586C11.3073 42.8986 11.3073 41.4993 10.4473 40.6392ZM9.41972 42.7311C9.27757 42.8733 9.08852 42.9516 8.88751 42.9516C8.68639 42.9516 8.49744 42.8733 8.35529 42.731C8.21315 42.5889 8.13476 42.3999 8.13476 42.1988C8.13476 41.9977 8.21305 41.8087 8.35529 41.6666C8.49744 41.5245 8.68639 41.4461 8.88751 41.4461C9.08852 41.4461 9.27757 41.5244 9.41972 41.6666C9.71317 41.9601 9.71317 42.4377 9.41972 42.7311Z" fill="#61C967"/>
<path d="M43.8502 40.6393C43.4336 40.2227 42.8797 39.9932 42.2904 39.9932C41.7012 39.9932 41.1474 40.2226 40.7306 40.6392C39.8707 41.4993 39.8707 42.8986 40.7306 43.7586C41.1473 44.1752 41.7012 44.4046 42.2904 44.4046C42.8797 44.4046 43.4335 44.1752 43.8501 43.7587C44.2667 43.3421 44.4962 42.7882 44.4962 42.199C44.4962 41.6098 44.2667 41.0559 43.8502 40.6393ZM42.8226 42.7312C42.6805 42.8734 42.4915 42.9516 42.2904 42.9516C42.0894 42.9516 41.9003 42.8734 41.7582 42.7312C41.4648 42.4378 41.4648 41.9602 41.7582 41.6668C41.9003 41.5247 42.0894 41.4463 42.2904 41.4463C42.4915 41.4463 42.6805 41.5246 42.8227 41.6668C42.9649 41.8089 43.0432 41.9979 43.0432 42.199C43.0432 42.3999 42.965 42.589 42.8226 42.7312Z" fill="#61C967"/>
</svg>
