<svg width="50" height="51" viewBox="0 0 50 51" fill="none" xmlns="http://www.w3.org/2000/svg">
<path d="M41.7939 8.12402H39.3534C38.989 8.12402 38.7583 8.3594 38.7583 8.61948H38.7582V16.6698C38.7582 17.0042 39.1468 17.1776 39.5475 17.1776C39.9361 17.1776 40.3367 17.0043 40.3367 16.6698V13.7965H41.6968C43.2995 13.7965 44.5502 13.0161 44.5502 10.985V10.9108C44.5502 8.87956 43.336 8.12402 41.7939 8.12402ZM42.9716 11.1089C42.9716 12.0749 42.486 12.5332 41.6967 12.5332H40.3367V9.53598H41.6967C42.486 9.53598 42.9716 9.99428 42.9716 10.9603V11.1089Z" fill="#61C967"/>
<path d="M28.6199 11.271C26.3148 8.91982 23.2502 7.625 19.9903 7.625C16.7305 7.625 13.6658 8.91982 11.3608 11.271C11.0825 11.5547 11.0825 12.0147 11.3608 12.2985C11.6389 12.5821 12.0899 12.5821 12.368 12.2985C14.404 10.2218 17.1109 9.0781 19.9902 9.0781C22.8695 9.0781 25.5765 10.2218 27.6125 12.2985C27.7516 12.4403 27.9339 12.5112 28.1162 12.5112C28.2984 12.5112 28.4807 12.4403 28.6199 12.2985C28.898 12.0148 28.898 11.5547 28.6199 11.271Z" fill="#61C967"/>
<path d="M25.6814 14.2688C22.5433 11.068 17.4373 11.068 14.2994 14.2688C14.0211 14.5525 14.0211 15.0126 14.2994 15.2963C14.5775 15.5799 15.0286 15.5799 15.3067 15.2963C17.8893 12.6621 22.0914 12.6621 24.674 15.2963C24.8131 15.4381 24.9953 15.509 25.1777 15.509C25.3599 15.509 25.5422 15.4381 25.6814 15.2963C25.9595 15.0126 25.9595 14.5525 25.6814 14.2688Z" fill="#61C967"/>
<path d="M22.7893 17.2187C21.2459 15.6445 18.7347 15.6445 17.1913 17.2187C16.9131 17.5024 16.9131 17.9624 17.1913 18.2462C17.4695 18.53 17.9205 18.5299 18.1987 18.2462C19.1866 17.2386 20.7941 17.2386 21.782 18.2462C21.9211 18.3882 22.1034 18.459 22.2856 18.459C22.4679 18.459 22.6502 18.3881 22.7893 18.2462C23.0675 17.9624 23.0675 17.5025 22.7893 17.2187Z" fill="#61C967"/>
<path d="M35.0508 31.3686C34.7426 31.1955 34.4385 31.0061 34.1471 30.8053L29.4357 27.5588C28.0059 26.5735 26.3379 26.0527 24.6123 26.0527H15.9648C13.6694 26.0527 11.5096 26.9629 9.88327 28.6154C9.04734 29.4649 8.095 30.1756 7.05272 30.7276C6.43631 31.0541 6.05341 31.6967 6.05341 32.4046C6.05341 33.4471 6.88485 34.2952 7.90691 34.2952H10.8551C11.2485 34.2952 11.5674 33.9699 11.5674 33.5686C11.5674 33.1674 11.2485 32.8421 10.8551 32.8421H7.90691C7.67039 32.8421 7.47791 32.6458 7.47791 32.4045C7.47791 32.241 7.56649 32.0926 7.70916 32.0171C8.88015 31.397 9.94997 30.5987 10.8886 29.6447C12.2461 28.2654 14.0488 27.5057 15.9647 27.5057H17.9007V32.8421H15.5343C15.141 32.8421 14.822 33.1674 14.822 33.5686C14.822 33.9699 15.141 34.2952 15.5343 34.2952H35.0653C35.6508 34.2952 36.1272 33.8093 36.1272 33.212C36.1272 32.4472 35.7147 31.7408 35.0508 31.3686ZM19.3255 32.8422V27.5058H24.6124C26.0527 27.5058 27.4449 27.9405 28.6384 28.7629L33.3498 32.0094C33.6769 32.2348 34.0182 32.4475 34.3645 32.6418C34.4542 32.6921 34.5293 32.7612 34.5857 32.8422H19.3255Z" fill="#61C967"/>
<path d="M21.0903 35.3994H18.8902C18.4968 35.3994 18.1779 35.7247 18.1779 36.126C18.1779 36.5272 18.4968 36.8525 18.8902 36.8525H21.0903C21.4837 36.8525 21.8026 36.5272 21.8026 36.126C21.8026 35.7247 21.4837 35.3994 21.0903 35.3994Z" fill="#61C967"/>
<path d="M49.3854 34.7901L49.1604 34.4092C48.3125 32.9739 46.9021 31.9633 45.2908 31.6364L43.4519 31.2633V21.756H48.2108C49.1907 21.756 49.9878 20.9429 49.9878 19.9435V5.79393C49.9878 4.79445 49.1906 3.98145 48.2108 3.98145H34.3387C33.3589 3.98145 32.5618 4.79455 32.5618 5.79393V11.1614C32.5618 11.5626 32.8806 11.8879 33.2741 11.8879C33.6675 11.8879 33.9864 11.5626 33.9864 11.1614V5.79393C33.9864 5.59571 34.1445 5.43444 34.3388 5.43444H48.211C48.4054 5.43444 48.5635 5.59571 48.5635 5.79393V19.9436C48.5635 20.1418 48.4054 20.3031 48.211 20.3031H34.3387C34.1444 20.3031 33.9863 20.1418 33.9863 19.9436V15.8846C33.9863 15.4834 33.6674 15.1581 33.274 15.1581C32.8805 15.1581 32.5617 15.4834 32.5617 15.8846V19.9436C32.5617 20.9431 33.3589 21.7561 34.3386 21.7561H39.7352V30.5096L38.7899 30.3179C37.4852 30.0532 36.2132 29.25 35.3699 28.6688L30.6586 25.4225C28.8661 24.1874 26.7754 23.5346 24.6123 23.5346H15.9649C13.0874 23.5346 10.3801 24.6754 8.34176 26.7468C7.05193 28.0575 5.4283 28.9515 3.64637 29.3322L2.62372 29.5507C1.10341 29.8754 0 31.2612 0 32.8455V39.8819C0 40.7212 0.485838 41.4839 1.23789 41.8248L4.07498 43.1109C4.24657 44.026 4.67879 44.8999 5.37195 45.6069C6.29314 46.5466 7.50319 47.0164 8.71334 47.0164C9.9235 47.0164 11.1335 46.5466 12.0547 45.6069C12.6472 45.0026 13.048 44.2762 13.2594 43.5065H36.9152C37.1266 44.2762 37.5275 45.0026 38.12 45.6069C39.0125 46.5173 40.1991 47.0187 41.4614 47.0187C42.7236 47.0187 43.9103 46.5174 44.8028 45.6069C45.3953 45.0026 45.7961 44.2762 46.0075 43.5065H47.3588C48.8151 43.5065 50 42.2979 50 40.8125V37.0441C49.9998 36.2498 49.7873 35.4704 49.3854 34.7901ZM41.1598 21.756H42.0274V30.9744L41.1598 30.7984V21.756ZM11.0473 44.5796C10.4239 45.2155 9.59498 45.5657 8.71325 45.5657C7.83151 45.5657 7.00261 45.2155 6.37917 44.5796C5.37908 43.5595 5.15662 42.0425 5.71072 40.8008C5.71521 40.7908 5.71951 40.7808 5.724 40.7708C5.7409 40.734 5.75877 40.6975 5.77703 40.6613C5.78562 40.6441 5.79422 40.6271 5.8032 40.6102C5.8197 40.5787 5.83689 40.5474 5.85447 40.5163C5.86658 40.4949 5.87898 40.4737 5.89158 40.4526C5.90789 40.4252 5.92439 40.3979 5.94158 40.3709C5.95711 40.3465 5.97312 40.3224 5.98933 40.2984C6.00535 40.2746 6.02127 40.2507 6.03787 40.2273C6.05691 40.2005 6.07673 40.1742 6.09666 40.1479C6.11218 40.1273 6.12732 40.1066 6.14333 40.0864C6.16677 40.0568 6.19128 40.0279 6.2157 39.9991C6.22966 39.9826 6.24304 39.9658 6.2573 39.9495C6.29363 39.9084 6.33103 39.8681 6.36951 39.8285C6.37283 39.8251 6.37585 39.8215 6.37917 39.8182C6.3865 39.8107 6.39421 39.8037 6.40163 39.7963C6.43425 39.7637 6.46706 39.7314 6.50056 39.7004C6.50925 39.6924 6.51843 39.6849 6.52722 39.6769C6.56062 39.6467 6.59421 39.6168 6.62859 39.5882C6.63181 39.5855 6.63523 39.583 6.63845 39.5803C7.84577 38.5837 9.58707 38.5849 10.7929 39.5843C10.7943 39.5855 10.7958 39.5865 10.7972 39.5877C10.834 39.6182 10.8701 39.6503 10.9059 39.6828C10.9124 39.6886 10.919 39.694 10.9253 39.6999C10.9668 39.7381 11.0074 39.7774 11.0472 39.8181C11.0902 39.8619 11.1316 39.907 11.1718 39.9527C11.1895 39.9729 11.2062 39.9935 11.2233 40.0139C11.2442 40.0388 11.2652 40.0638 11.2853 40.0892C11.3079 40.1178 11.3296 40.1469 11.3511 40.176C11.3632 40.1922 11.3752 40.2085 11.387 40.225C11.413 40.2616 11.4384 40.2987 11.4629 40.3362C11.4671 40.3426 11.4712 40.3491 11.4753 40.3555C12.3132 41.6608 12.1707 43.4337 11.0473 44.5796ZM43.7953 44.5796C43.1718 45.2155 42.3429 45.5657 41.4612 45.5657C40.5794 45.5657 39.7506 45.2155 39.1272 44.5796C38.0037 43.4337 37.8611 41.6605 38.6991 40.3553C38.7031 40.349 38.7071 40.3427 38.7112 40.3365C38.7357 40.2989 38.7612 40.2617 38.7873 40.2249C38.799 40.2085 38.8109 40.1924 38.8229 40.1764C38.8445 40.1471 38.8664 40.1179 38.8891 40.0891C38.9091 40.0639 38.9298 40.0392 38.9506 40.0145C38.9679 39.9939 38.9848 39.973 39.0027 39.9527C39.0429 39.907 39.0843 39.862 39.1273 39.8182C39.7507 39.1823 40.5795 38.832 41.4613 38.832C42.343 38.832 43.1719 39.1823 43.7953 39.8182C43.8383 39.862 43.8797 39.9071 43.9199 39.9528C43.9377 39.973 43.9544 39.9937 43.9716 40.0142C43.9925 40.039 44.0134 40.0639 44.0334 40.0892C44.0561 40.1179 44.0779 40.147 44.0994 40.1762C44.1114 40.1924 44.1235 40.2086 44.1352 40.2251C44.1613 40.2618 44.1867 40.2988 44.2112 40.3363C44.2154 40.3427 44.2195 40.3491 44.2236 40.3555C45.0612 41.6607 44.9187 43.4338 43.7953 44.5796ZM48.5755 40.8125H48.5753C48.5753 41.4968 48.0295 42.0535 47.3586 42.0535H46.186C46.158 40.9997 45.7934 39.9944 45.1371 39.1701C45.1327 39.1645 45.1285 39.1588 45.124 39.1532C45.0834 39.1027 45.0413 39.0532 44.9986 39.004C44.9876 38.9914 44.9773 38.9785 44.9662 38.9659C44.9209 38.915 44.874 38.8651 44.8264 38.8159C44.8183 38.8075 44.8109 38.7988 44.8027 38.7905C44.189 38.1647 43.4364 37.7321 42.6157 37.5229C42.2427 37.4277 41.8557 37.3788 41.4612 37.3788C41.1456 37.3788 40.8348 37.4102 40.5321 37.4714C39.624 37.6551 38.7892 38.1078 38.1198 38.7905C38.1118 38.7987 38.1044 38.8072 38.0965 38.8155C38.0487 38.865 38.0016 38.915 37.9562 38.9661C37.9455 38.9782 37.9355 38.9907 37.9249 39.0029C37.8818 39.0525 37.8392 39.1025 37.7983 39.1535C37.7942 39.1586 37.7904 39.1638 37.7863 39.169C37.1295 39.9934 36.7645 40.9993 36.7365 42.0536H13.4379C13.4099 40.998 13.0441 39.9909 12.3857 39.1658C12.3827 39.1619 12.3797 39.1581 12.3767 39.1542C12.3337 39.1006 12.2891 39.0481 12.2437 38.9961C12.2353 38.9865 12.2275 38.9767 12.219 38.9671C12.1658 38.9072 12.1111 38.8483 12.0545 38.7906C11.8243 38.5557 11.5758 38.3501 11.314 38.1739C10.5283 37.6454 9.62076 37.3811 8.71325 37.3811C7.50319 37.3811 6.29304 37.851 5.37185 38.7906C5.31922 38.8443 5.26834 38.8994 5.21853 38.9552C5.20379 38.9717 5.18963 38.9885 5.17508 39.0052C5.13992 39.0457 5.10535 39.0866 5.07166 39.1281C5.05672 39.1465 5.04178 39.165 5.02713 39.1838C4.99227 39.2281 4.95828 39.2729 4.92508 39.3182C4.91473 39.3324 4.90408 39.3462 4.89402 39.3605C4.80477 39.4851 4.72195 39.6136 4.64539 39.7453C4.64324 39.749 4.64119 39.7528 4.63904 39.7565C4.60164 39.8214 4.5658 39.8871 4.53153 39.9535C4.53055 39.9554 4.52957 39.9574 4.5285 39.9593C4.28016 40.4413 4.11317 40.9627 4.0366 41.5034L1.81659 40.497C1.57851 40.389 1.4247 40.1476 1.4247 39.8819V32.8455C1.4247 31.945 2.05194 31.1574 2.9161 30.9727L3.93875 30.7542C5.99148 30.3157 7.86179 29.2858 9.34752 27.776C11.117 25.9778 13.4672 24.9875 15.9652 24.9875H24.6126C26.4904 24.9875 28.3054 25.5543 29.8614 26.6264L34.5727 29.8727C35.5181 30.5242 36.9551 31.4269 38.5122 31.7429L45.0132 33.0615C46.2321 33.3088 47.299 34.0733 47.9405 35.1591L48.1655 35.54C48.4338 35.9939 48.5755 36.514 48.5755 37.0441V40.8125Z" fill="#61C967"/>
<path d="M10.2424 40.6392C9.83382 40.2226 9.29085 39.9932 8.71321 39.9932C8.13558 39.9932 7.59251 40.2227 7.18412 40.6392C6.77572 41.0558 6.55072 41.6097 6.55072 42.1989C6.55072 42.7881 6.77572 43.342 7.18412 43.7586C7.59251 44.1751 8.13558 44.4046 8.71331 44.4046C9.29095 44.4046 9.83401 44.1752 10.2424 43.7586C11.0856 42.8986 11.0856 41.4993 10.2424 40.6392ZM9.23499 42.7311C9.09563 42.8733 8.91028 42.9516 8.71321 42.9516C8.51605 42.9516 8.33079 42.8733 8.19144 42.731C8.05208 42.5889 7.97523 42.3999 7.97523 42.1988C7.97523 41.9977 8.05198 41.8087 8.19144 41.6666C8.33079 41.5245 8.51605 41.4461 8.71321 41.4461C8.91028 41.4461 9.09563 41.5244 9.23499 41.6666C9.52268 41.9601 9.52268 42.4377 9.23499 42.7311Z" fill="#61C967"/>
<path d="M42.9904 40.6393C42.582 40.2227 42.0389 39.9932 41.4612 39.9932C40.8835 39.9932 40.3406 40.2226 39.932 40.6392C39.0889 41.4993 39.0889 42.8986 39.932 43.7586C40.3405 44.1752 40.8835 44.4046 41.4612 44.4046C42.0389 44.4046 42.5819 44.1752 42.9903 43.7587C43.3988 43.3421 43.6237 42.7882 43.6237 42.199C43.6237 41.6098 43.3988 41.0559 42.9904 40.6393ZM41.9829 42.7312C41.8436 42.8734 41.6583 42.9516 41.4612 42.9516C41.2641 42.9516 41.0788 42.8734 40.9394 42.7312C40.6517 42.4378 40.6517 41.9602 40.9394 41.6668C41.0788 41.5247 41.2641 41.4463 41.4612 41.4463C41.6583 41.4463 41.8436 41.5246 41.983 41.6668C42.1224 41.8089 42.1992 41.9979 42.1992 42.199C42.1992 42.3999 42.1225 42.589 41.9829 42.7312Z" fill="#61C967"/>
</svg>
