<svg width="52" height="52" viewBox="0 0 52 52" fill="none" xmlns="http://www.w3.org/2000/svg">
<path d="M28.1666 45.5H38.3803C40.7745 45.5 42.7136 43.5608 42.7136 41.1667V8.66667C42.7136 7.47067 41.743 6.5 40.547 6.5H36.5235C35.3275 6.5 34.3568 7.47067 34.3568 8.66667V13.663" stroke="#61C967" stroke-width="2" stroke-linecap="round" stroke-linejoin="round"/>
<path d="M6.5 23.2139L23.179 8.91825C24.8018 7.52725 27.196 7.52725 28.8188 8.91825L45.5 23.2139" stroke="#61C967" stroke-width="2" stroke-linecap="round" stroke-linejoin="round"/>
<path fill-rule="evenodd" clip-rule="evenodd" d="M6.5 41.0566C6.5 44.2048 10.9092 46.5448 12.9328 47.4526C13.572 47.7386 14.2827 47.7386 14.9218 47.4526C16.9455 46.5448 21.3547 44.2048 21.3547 41.0566V34.3746C21.3547 33.3303 20.7003 32.3986 19.7167 32.0454L15.9358 30.6869C14.6337 30.2189 13.2102 30.2189 11.908 30.6869L8.13367 32.0454C7.15433 32.3986 6.5 33.3303 6.5 34.3746V41.0566H6.5Z" stroke="#61C967" stroke-width="2" stroke-linecap="round" stroke-linejoin="round"/>
</svg>
