<svg width="26" height="26" viewBox="0 0 26 26" fill="none" xmlns="http://www.w3.org/2000/svg">
<g clip-path="url(#clip0_100_593)">
<mask id="mask0_100_593" style="mask-type:luminance" maskUnits="userSpaceOnUse" x="-1" y="0" width="27" height="26">
<path d="M-0.00354004 0H25.9977V26H-0.00354004V0Z" fill="white"/>
</mask>
<g mask="url(#mask0_100_593)">
<path fill-rule="evenodd" clip-rule="evenodd" d="M-1.64124 0H27.6392V26H-1.64124V0Z" fill="#FF0000"/>
</g>
<path fill-rule="evenodd" clip-rule="evenodd" d="M5.20503 13.127C5.89565 12.284 7.33276 13.1066 8.50581 12.5023C7.1144 12.5785 6.35776 11.832 5.26089 11.9387C6.39839 11.2379 7.36831 12.1672 8.63784 11.7965C6.95698 11.6543 7.02808 10.8977 5.49448 10.791C6.85542 10.2121 7.52573 11.3902 8.86128 11.1211C7.28706 10.7605 7.08394 9.83632 5.91597 9.63828C7.62222 9.38437 7.5105 10.3898 9.1812 10.5117C7.48511 9.78554 7.9269 9.15078 6.51011 8.59726C8.09956 8.56172 7.99292 9.66367 9.60776 9.94804C8.22651 9.07461 8.39409 8.27734 7.26167 7.65273C8.60737 7.67812 8.73433 9.05429 10.1105 9.48086C8.88667 8.51093 9.20659 7.68828 8.15034 6.81992C9.49097 7.13476 9.29292 8.32304 10.6894 9.08476C9.65347 7.93711 10.0496 7.11445 9.15073 6.175C10.4406 6.58632 9.948 7.71875 11.2835 8.79531C10.5218 7.53086 10.9941 6.72343 10.2375 5.66211C11.4359 6.27656 10.857 7.43437 11.964 8.58203C11.441 7.28711 11.964 6.48476 11.4308 5.33711C12.4566 6.09882 11.8472 7.33281 12.675 8.51093C12.3703 6.88593 13.071 6.62187 12.8527 5.2C13.6296 6.15468 12.7613 7.10937 13.3605 8.51601C13.2843 6.9164 14.1375 6.5457 13.9902 5.26601C14.757 6.41367 13.5585 7.41406 14.0613 8.64297C14.1882 7.12968 15.1835 6.73359 15.1988 5.55547C15.8082 6.63711 14.4878 7.41914 14.7011 8.85625C15.1328 7.27187 16.1941 7.0789 16.3261 6.0125C16.6867 7.26172 15.2394 7.84062 15.3257 9.23203C15.7574 7.82539 17.0828 7.65781 17.357 6.62187C17.5246 7.94218 16.2195 8.18086 15.8488 9.64336C16.5343 8.45 17.7378 8.35351 18.2761 7.40898C18.2355 8.71914 16.7628 8.89179 16.3109 10.1156C17.1589 9.07461 18.2253 9.25234 19.0734 8.3332C18.982 9.5164 17.4839 9.45039 16.6867 10.6742C17.6058 9.82617 18.9921 10.0801 19.698 9.34882C19.6625 10.3949 17.8242 10.3137 16.9558 11.2531C18.0222 10.6641 19.3832 11.0094 20.1652 10.466C20.023 11.3801 18.0832 11.1668 17.1539 11.8879C18.4335 11.5324 19.4238 12.0758 20.4546 11.6848C19.9519 12.5734 18.1898 12.0098 17.2554 12.5887C18.3726 12.4008 19.5507 13.0762 20.5613 12.8578C20.2312 13.6297 18.2964 12.807 17.2605 13.2894C18.4996 13.2793 19.307 14.0766 20.4597 14.0207C19.8351 14.7215 18.139 13.7617 17.1488 13.9242C18.3574 14.1781 19.2816 15.1734 20.1957 15.2242C19.439 15.798 18.0375 14.4879 16.8949 14.6504C18.073 14.9652 19.0582 16.3008 19.7285 16.3312C19.0023 16.8289 17.5703 15.1887 16.5902 15.2496C17.7835 15.7879 18.3269 17.1539 19.114 17.3469C18.1441 17.6566 17.1894 15.8641 16.1484 15.798C17.357 16.5598 17.423 17.7277 18.3523 18.2457C17.3722 18.4844 16.6765 16.4582 15.6457 16.2855C16.6359 17.0117 16.7882 18.5707 17.4433 19.0582C16.448 19.109 16.0875 16.9914 15.0667 16.6867C15.9402 17.418 15.732 19.0023 16.4125 19.6828C15.3765 19.4645 15.5085 17.6211 14.4269 16.9965C15.2039 17.9816 14.8078 19.3781 15.3156 20.1652C14.305 19.759 14.7417 18.1035 13.782 17.1691C14.305 18.2152 13.7414 19.434 14.1578 20.4445C13.2335 19.9926 13.8531 18.0375 13.1472 17.2605C13.4722 18.4691 12.873 19.4695 13.1167 20.5512C12.1722 19.4594 13.2589 18.3574 12.4414 17.2453C12.6546 18.5199 11.7609 19.4137 11.9031 20.4801C11.1566 19.6066 12.3093 18.2102 11.7253 17.1082C11.8472 18.3625 10.6945 19.4644 10.7757 20.2566C10.1664 19.241 11.4511 18.0426 11.1058 16.8898C11.0347 18.0883 9.86675 18.7383 9.64839 19.8301C9.25737 18.6266 10.6437 17.7582 10.5218 16.575C10.1257 17.6973 8.99839 18.1492 8.60229 19.241C8.27729 18.0375 9.92261 17.4027 9.96323 16.1434C9.45542 17.3215 8.10972 17.5855 7.66284 18.4895C7.49526 17.2961 9.37925 16.7629 9.45034 15.6305C8.84097 16.7172 7.36831 16.7629 6.8605 17.6262C6.78433 16.4379 8.76987 16.2906 9.07964 15.0465C8.47534 15.9707 6.8605 15.8539 6.18511 16.6055C6.29175 15.5035 8.43979 15.4375 8.78511 14.4422C7.98276 15.2141 6.49995 14.8992 5.66206 15.5086C6.12925 14.4219 8.14526 14.6504 8.59722 13.8684C7.70854 14.3305 6.12925 13.8785 5.34722 14.3457C6.05815 13.3199 7.62222 13.9344 8.51089 13.2285C7.0687 13.4367 6.20034 12.8629 5.19995 13.127H5.20503Z" fill="#FFFF00"/>
<path fill-rule="evenodd" clip-rule="evenodd" d="M17.9258 12.873C17.9258 14.2098 17.3948 15.4917 16.4496 16.4369C15.5044 17.3821 14.2224 17.9131 12.8857 17.9131C11.549 17.9131 10.2671 17.3821 9.3219 16.4369C8.37671 15.4917 7.8457 14.2098 7.8457 12.873C7.8457 11.537 8.37644 10.2557 9.32115 9.311C10.2659 8.36628 11.5472 7.83555 12.8832 7.83555C14.2192 7.83555 15.5005 8.36628 16.4453 9.311C17.39 10.2557 17.9207 11.537 17.9207 12.873H17.9258Z" fill="#FFFF00"/>
<path fill-rule="evenodd" clip-rule="evenodd" d="M17.2758 12.8832C17.2758 14.0455 16.8141 15.1602 15.9922 15.982C15.1704 16.8039 14.0557 17.2656 12.8934 17.2656C11.7311 17.2656 10.6164 16.8039 9.79457 15.982C8.9727 15.1602 8.51099 14.0455 8.51099 12.8832C8.51099 11.7209 8.9727 10.6062 9.79457 9.78436C10.6164 8.9625 11.7311 8.50078 12.8934 8.50078C14.0557 8.50078 15.1704 8.9625 15.9922 9.78436C16.8141 10.6062 17.2758 11.7209 17.2758 12.8832Z" fill="#FF0000"/>
<path fill-rule="evenodd" clip-rule="evenodd" d="M16.6664 12.8934C16.6664 13.8913 16.27 14.8484 15.5643 15.5541C14.8586 16.2598 13.9015 16.6563 12.9035 16.6563C11.9055 16.6563 10.9484 16.2598 10.2427 15.5541C9.53707 14.8484 9.14062 13.8913 9.14062 12.8934C9.14062 11.8954 9.53707 10.9383 10.2427 10.2326C10.9484 9.52692 11.9055 9.13047 12.9035 9.13047C13.9015 9.13047 14.8586 9.52692 15.5643 10.2326C16.27 10.9383 16.6664 11.8954 16.6664 12.8934Z" fill="#FFFF00"/>
<path fill-rule="evenodd" clip-rule="evenodd" d="M9.69924 10.4305C10.7403 10.4051 12.0352 10.5016 12.8934 11.182C13.8102 10.6098 14.8897 10.3547 15.9656 10.4559L16.5242 11.4766C15.6563 11.3974 14.7824 11.5407 13.9852 11.893C14.555 12.3132 15.0131 12.8667 15.3194 13.505C15.6257 14.1433 15.7709 14.8469 15.7422 15.5543C15.6051 15.727 15.3867 15.9148 15.2496 16.0875C15.4528 14.6402 14.691 13.0254 13.5789 12.1773C14.4828 13.4773 15.016 14.6453 14.8688 16.2602L14.361 16.5852C14.5946 15.1633 14.2594 13.4875 13.2082 12.5227C13.8176 13.4113 14.4168 15.0109 14.041 16.6359C13.8785 16.6867 13.6246 16.8238 13.4621 16.8695C13.6612 16.2028 13.7153 15.5012 13.6207 14.8119C13.5261 14.1226 13.285 13.4615 12.9137 12.873C12.2129 13.8785 11.9844 15.4121 12.3805 16.834C12.1875 16.7832 12.0403 16.7223 11.8422 16.6766C11.5528 15.1531 11.9539 13.4266 12.6496 12.5277C11.9387 12.9391 11.2735 14.6961 11.4614 16.4887L10.9891 16.2703C10.7606 14.9348 11.3649 13.193 12.2332 12.1875C11.2481 12.807 10.4457 14.3355 10.5828 15.9758C10.4305 15.8438 10.2934 15.7777 10.141 15.6406C9.96838 14.2086 10.8012 12.7664 11.7711 11.9031C10.9535 11.5324 10.2477 11.4613 9.23206 11.4766C9.38948 11.1465 9.53674 10.7605 9.69924 10.4254V10.4305Z" fill="#FF0000"/>
</g>
<rect x="0.5" y="0.5" width="25" height="25" rx="12.5" stroke="#DCDCDC"/>
<defs>
<clipPath id="clip0_100_593">
<rect width="26" height="26" rx="13" fill="white"/>
</clipPath>
</defs>
</svg>
